<?xml version="1.0" encoding="utf-8"?>
<!-- Generator: Adobe Illustrator 22.0.1, SVG Export Plug-In . SVG Version: 6.00 Build 0)  -->
<svg version="1.1" id="Isotipo_Favicon" xmlns="http://www.w3.org/2000/svg" xmlns:xlink="http://www.w3.org/1999/xlink" x="0px"
	 y="0px" viewBox="0 0 512 352.3" style="enable-background:new 0 0 512 352.3;" xml:space="preserve">
<style type="text/css">
	.st0{fill:#F72A05;}
</style>
<g>
	<path d="M355.9,352.2c-40.3,0-80.4,0-120.5,0c-0.9-1.4-116.4-229.7-117.8-233c6.7-13.2,13.4-26.4,20.1-39.7
		c6.7-13.2,13.4-26.4,20-39.7C164.4,26.6,171,13.3,177.8,0c0.2,0.2,0.4,0.3,0.4,0.4c59.2,117,118.3,234.1,177.4,351.1
		C355.8,351.6,355.8,351.8,355.9,352.2z"/>
	<path class="st0" d="M334.1,0c0.8,1.2,176.2,347.9,177.7,351.3c0.1,0.2,0.1,0.5,0.2,0.8c-0.3,0.1-0.4,0.2-0.6,0.2
		c-39.9,0-79.9,0-119.9,0c-0.4-0.7-0.8-1.4-1.1-2.1c-8.7-17-17.5-34.1-26.2-51.1c-14.5-28.4-29.1-56.8-43.6-85.2
		c-6.7-13.2-13-26.6-18.4-40.5c-3.4-8.8-6.3-17.7-8.4-26.9c-2.1-9.2-3.2-18.5-3.1-28c0.1-5.5,0.8-10.9,1.9-16.3
		c2.2-11.3,5.7-22.2,9.6-33c5.6-15.2,12-30,19.2-44.5c3.8-7.7,7.8-15.3,11.7-23C333.3,1.1,333.6,0.5,334.1,0z"/>
	<path class="st0" d="M0,352.2c0.2-0.5,0.2-0.8,0.3-1C34,284.6,67.6,218.1,101.2,151.5c0.8,0.2,0.9,0.9,1.2,1.4
		c5.2,9.5,10,19.2,14.6,28.9c6.5,13.8,12.5,27.7,17.5,42.1c3,8.6,5.7,17.2,7.6,26.1c1.8,8.2,2.8,16.4,2.6,24.8
		c-0.7,21-5,41.1-14,60.2c-2.4,5.2-5.2,10.2-8.5,15c-0.4,0.6-0.9,1.2-1.3,1.8c-0.1,0.2-0.3,0.3-0.5,0.4
		C80.5,352.2,40.3,352.2,0,352.2z"/>
</g>
</svg>
